<svg width="53" height="35" viewBox="0 0 53 35" fill="none" xmlns="http://www.w3.org/2000/svg">
<path d="M28.1588 18.617C31.4341 18.617 34.1139 22.0596 34.1139 22.9203C34.1139 23.7809 31.4341 26.6498 28.1588 26.6498C24.8835 26.6498 22.5015 22.9203 22.5015 22.9203C22.5015 22.9203 24.8835 18.617 28.1588 18.617Z" fill="#FFFDFB"/>
<path d="M18.9285 19.4777L22.5015 22.9203M22.5015 22.9203L18.9285 26.3629M22.5015 22.9203C22.5015 22.9203 24.8835 26.6498 28.1588 26.6498C31.4341 26.6498 34.1139 23.7809 34.1139 22.9203C34.1139 22.0596 31.4341 18.617 28.1588 18.617C24.8835 18.617 22.5015 22.9203 22.5015 22.9203Z" stroke="#FFFDFB" stroke-width="2" stroke-linecap="round" stroke-linejoin="round"/>
<path d="M23.7715 1.21484C25.9219 -0.0173771 28.1358 0.588814 29.2285 1.21484L29.4023 1.31445L29.5967 1.2666C30.8294 0.961701 33.1289 0.979121 34.8271 2.74316L34.9678 2.88965L35.1709 2.89551C35.4932 2.90629 38.3627 3.04178 39.752 5.72266L39.8467 5.90625L40.0439 5.96875C40.3415 6.06398 42.9081 6.90747 43.5586 9.7168L43.6484 10.1045H48.1211C48.6602 10.1046 49.0923 10.4842 49.1631 10.9609L52.4902 33.3682C52.5313 33.6464 52.4458 33.9319 52.249 34.1504C52.0509 34.3699 51.759 34.5 51.4473 34.5H1.55273C1.2407 34.5 0.948502 34.3697 0.750977 34.1504C0.554052 33.9318 0.468362 33.6463 0.509766 33.3682H0.510742L3.83691 10.9609C3.90766 10.4841 4.33967 10.1045 4.87891 10.1045H9.35059L9.44043 9.7168C10.0893 6.91207 12.6559 6.06467 12.9561 5.96875L13.1523 5.90625L13.2471 5.72266C14.6356 3.04137 17.5104 2.90628 17.8291 2.89551L18.0312 2.88867L18.1719 2.74316C19.8698 0.979508 22.1702 0.961688 23.4033 1.2666L23.5977 1.31445L23.7715 1.21484ZM4.54004 10.7969L1.06152 33.6572L0.974609 34.2324H52.0254L51.9375 33.6572L48.459 10.7969L48.3945 10.3721H4.60547L4.54004 10.7969ZM26.499 1.34668C25.8307 1.34704 25.123 1.53192 24.5938 1.94531L24.4902 2.03125C24.2108 2.27728 23.8138 2.35996 23.4541 2.25195L23.3027 2.19336L23.1777 2.13867C22.5488 1.88524 21.8175 1.90043 21.1758 2.08301C20.5351 2.2653 19.9097 2.6358 19.5215 3.17871L19.4473 3.29004C19.2284 3.63861 18.7997 3.83415 18.3623 3.7627L18.0986 3.73438C17.4632 3.70157 16.7064 3.88705 16.0635 4.18848C15.3893 4.50463 14.6846 5.02285 14.4209 5.72852L14.374 5.87207C14.2664 6.25776 13.9197 6.55676 13.4814 6.60645C13.3259 6.62412 13.1846 6.70463 13.1113 6.74805C13.0146 6.8054 12.908 6.88034 12.7979 6.96387C12.5761 7.1321 12.3122 7.35838 12.0449 7.61328C11.5194 8.1145 10.927 8.77357 10.6045 9.36523L10.2021 10.1045H42.7979L42.3945 9.36523L42.127 8.90723C41.8418 8.44787 41.5127 7.99308 41.2217 7.62305C41.0272 7.37574 40.8439 7.15924 40.6953 7C40.6219 6.92139 40.5498 6.84935 40.4854 6.79297C40.4538 6.76538 40.4155 6.73324 40.373 6.70508C40.3562 6.69392 40.2959 6.65336 40.209 6.62695L40.1143 6.60645H40.1133C39.6753 6.55659 39.3288 6.25737 39.2217 5.87207L39.1748 5.73047C38.9141 5.03334 38.2158 4.51402 37.5439 4.19531C36.9026 3.89109 36.1443 3.70129 35.501 3.73438L35.2324 3.7627C34.7949 3.83358 34.3674 3.63843 34.1484 3.29004L34.0635 3.16797C33.8547 2.89109 33.5659 2.67192 33.2598 2.50391C32.9057 2.30959 32.4979 2.16568 32.0859 2.07324C31.3357 1.90491 30.4697 1.88588 29.8242 2.13867L29.6982 2.19336C29.352 2.35657 28.9465 2.32556 28.6367 2.12695L28.5098 2.03125L28.4062 1.94531C27.8755 1.53071 27.1674 1.3464 26.499 1.34668ZM26.499 2.34668C27.0419 2.34639 27.5408 2.50942 27.8496 2.78125C28.4723 3.32953 29.3724 3.45191 30.124 3.09766C30.4918 2.92427 31.1668 2.89166 31.8672 3.04883C32.2055 3.12475 32.522 3.23965 32.7793 3.38086C33.0408 3.52446 33.2124 3.6801 33.3018 3.82227V3.82129C33.7426 4.52312 34.574 4.88231 35.3936 4.74902H35.3945C35.8177 4.67991 36.4912 4.80264 37.1152 5.09863C37.676 5.36465 38.0583 5.70356 38.208 6.01074L38.2578 6.13965C38.4665 6.8908 39.0989 7.44039 39.8613 7.5791C39.8877 7.60445 39.9227 7.63752 39.9639 7.68164C40.0877 7.81434 40.2524 8.00838 40.4355 8.24121C40.6387 8.49957 40.8566 8.79843 41.0615 9.10449H12.0098C12.23 8.84288 12.4826 8.57792 12.7354 8.33691C12.9821 8.10158 13.217 7.90034 13.4023 7.75977C13.4955 7.68915 13.5698 7.63939 13.6221 7.6084C13.6347 7.60092 13.6441 7.59466 13.6514 7.59082C14.3999 7.48513 15.0353 6.98758 15.291 6.28613L15.3379 6.13965C15.4343 5.79279 15.8459 5.39558 16.4873 5.09473C17.1129 4.80136 17.7862 4.68162 18.2012 4.74902C19.0213 4.88302 19.8527 4.52249 20.293 3.82129L20.2939 3.82227C20.5066 3.48384 20.9309 3.19243 21.4492 3.04492C21.9664 2.89778 22.4935 2.9173 22.876 3.09766C23.5803 3.42986 24.4164 3.34374 25.0312 2.87988L25.1514 2.78125C25.4587 2.51087 25.9563 2.347 26.499 2.34668Z" fill="#FFFDFB" stroke="#FFFDFB" stroke-width="0.999999"/>
</svg>
