<svg width="367" height="314" viewBox="0 0 367 314" fill="none" xmlns="http://www.w3.org/2000/svg">
<path d="M73.3444 113.818C125.152 143.476 116.329 230.047 60.133 230.047C35.8961 230.047 14.9207 211.86 5.58087 188.609C-15.9876 134.908 28.8647 88.3453 73.3444 113.818Z" fill="#FAC663" fill-opacity="0.15"/>
<path d="M126.553 124.538C64.3934 124.538 45.7815 19.175 104.836 1.85287C131.742 -6.03662 162.337 12.8938 172.164 47.4989C183.189 86.2856 161.498 124.538 126.553 124.538Z" fill="#FAC663" fill-opacity="0.15"/>
<path d="M142.54 312.086C151.172 309.704 166.493 308.169 182.53 307.948C199.481 307.7 217.229 308.913 228.712 312.086C259.727 320.71 301.928 299.845 292.668 256.512C284.104 216.451 253.331 218.733 246.054 180.768C238.722 142.399 210.228 123.881 182.53 125.329C156.895 126.672 131.946 145.124 125.148 180.777C117.913 218.768 87.2039 216.464 78.6519 256.512C69.3586 299.88 111.648 320.632 142.54 312.086Z" fill="#FAC663" fill-opacity="0.15"/>
<path d="M235.953 124.541C218.37 124.541 203.27 114.348 194.879 98.7472C169.935 52.3578 210.903 -11.8622 257.674 1.89114C316.83 19.2611 298.079 124.541 235.953 124.541Z" fill="#FAC663" fill-opacity="0.15"/>
<path d="M264.049 195.551C244.09 146.805 291.399 87.2625 336.582 105.997C391.008 128.562 367.004 225.883 307.161 225.883C287.956 225.883 271.635 214.081 264.049 195.551Z" fill="#FAC663" fill-opacity="0.15"/>
</svg>
