<svg width="299" height="345" viewBox="0 0 299 345" fill="none" xmlns="http://www.w3.org/2000/svg">
<path d="M90.0756 93.4146C127.813 139.669 88.552 217.329 36.0888 197.19C13.4617 188.504 0.397102 164.008 0.0100997 138.954C-0.881203 81.0908 57.6788 53.694 90.0756 93.4146Z" fill="#FAC663" fill-opacity="0.15"/>
<path d="M135.909 122.491C77.8775 100.215 98.2604 -4.81965 159.601 0.172177C187.546 2.44878 209.325 31.0861 206.098 66.9144C202.491 107.076 168.533 135.014 135.909 122.491Z" fill="#FAC663" fill-opacity="0.15"/>
<path d="M83.6223 303.311C92.5351 304.181 107.388 308.239 122.439 313.779C138.353 319.623 154.488 327.115 164.071 334.193C189.935 353.359 236.81 349.003 243.695 305.23C250.056 264.761 220.509 255.863 227.321 217.812C234.226 179.363 214.261 151.864 187.884 143.289C163.47 135.357 133.566 143.643 114.442 174.491C94.0733 207.366 66.2293 194.21 43.8937 228.533C19.6758 265.69 51.7201 300.219 83.6223 303.311Z" fill="#FAC663" fill-opacity="0.15"/>
<path d="M238.041 161.7C221.626 155.399 211.181 140.471 208.939 122.899C202.276 70.6517 263.537 25.3788 302.273 54.9799C351.275 92.3959 296.04 183.963 238.041 161.7Z" fill="#FAC663" fill-opacity="0.15"/>
<path d="M238.823 238.062C237.659 185.401 303.164 146.767 338.632 180.45C381.356 221.02 324.07 303.275 268.201 281.829C250.272 274.946 239.265 258.08 238.823 238.062Z" fill="#FAC663" fill-opacity="0.15"/>
</svg>
