<?xml version="1.0" encoding="UTF-8"?> <!-- Generator: Adobe Illustrator 24.1.2, SVG Export Plug-In . SVG Version: 6.00 Build 0) --> <svg xmlns="http://www.w3.org/2000/svg" xmlns:xlink="http://www.w3.org/1999/xlink" id="Capa_1" x="0px" y="0px" viewBox="0 0 512 512" style="enable-background:new 0 0 512 512;" xml:space="preserve"> <style type="text/css"> .st0{fill:#FFD6E0;} </style> <g id="XMLID_195_"> <path id="XMLID_441_" class="st0" d="M281.7,438.5c2.3-15.4,9.3-29.6,20.3-40.5c0.2-0.2,0.3-0.3,0.5-0.5 c40.6-40.6,30.9-116.3-21.8-169c-52.7-52.7-128.3-62.4-169-21.8c-0.2,0.2-0.4,0.4-0.5,0.5c-10.9,11.1-25.1,18.1-40.4,20.3 c-17.3,2.6-33.9,10.6-47.1,24C-7.8,283.7-7.9,335.8,23.5,368c7.6,7.8,16.3,13.7,25.6,17.9c33.2,14.8,59.5,41.2,74.4,74.4 c4.2,9.3,10.1,18,17.9,25.6c32.2,31.4,84.2,31.3,116.3-0.2C271.1,472.4,279.1,455.8,281.7,438.5L281.7,438.5z"></path> <ellipse id="XMLID_481_" transform="matrix(0.7071 -0.7071 0.7071 0.7071 46.1145 246.3846)" class="st0" cx="320.5" cy="67.5" rx="71.8" ry="56.9"></ellipse> <ellipse id="XMLID_483_" transform="matrix(0.7071 -0.7071 0.7071 0.7071 -22.2767 97.4499)" class="st0" cx="106.5" cy="75.6" rx="71.8" ry="56.9"></ellipse> <ellipse id="XMLID_84_" transform="matrix(0.7071 -0.7071 0.7071 0.7071 -6.3634 373.0399)" class="st0" cx="447.1" cy="194.2" rx="71.8" ry="56.9"></ellipse> <ellipse id="XMLID_5_" transform="matrix(0.7071 -0.7071 0.7071 0.7071 -158.9695 427.3563)" class="st0" cx="436.4" cy="405.6" rx="71.8" ry="56.9"></ellipse> </g> </svg> 